# xmcd CD database file
#
# Track frame offsets:
#	150
#	26812
#	40924
#	56626
#	88507
#	112004
#	137380
#	174858
#	188485
#	221829
#	254139
#	276942
#	309943
#
# Disc length: 4438 seconds
#
# Revision: 1
# Processed by: cddbd v1.5.2PL0 Copyright (c) Steve Scherf et al.
# Submitted via: CDex 1.70beta3
#
DISCID=b711540d
DTITLE=Various Artist - CAFE BLUE NOTE Disc2
DYEAR=2013
DGENRE=Jazz
TTITLE0=Maiden Voyage - Bobby Hutcherson
TTITLE1=Bags' Groove - Milt Jackson
TTITLE2=Opus De Funk - Horace Silver
TTITLE3=Fugee - Horace Parlan
TTITLE4=Love Walked In - Lou Donaldson
TTITLE5=The Sorcerer - Herbie Hancock
TTITLE6=Sippin' At Bells - Sonny Clark
TTITLE7=There Will Never Be Another You - Wynton Kelly
TTITLE8=Flea Flop - Andrew Hill
TTITLE9=I Didn't Know What Time It Was - McCoy Tyner
TTITLE10=Diamond Stud/ Duke Jordan
TTITLE11=Night Dreamer - Wayne Shorter
TTITLE12=The Good Life - Hank Mobley
EXTD=YEAR: 2013
EXTT0=
EXTT1=
EXTT2=
EXTT3=
EXTT4=
EXTT5=
EXTT6=
EXTT7=
EXTT8=
EXTT9=
EXTT10=
EXTT11=
EXTT12=
PLAYORDER=
